<mxfile host="app.diagrams.net" modified="2023-12-02T20:13:28.990Z" agent="Mozilla/5.0 (Windows NT 10.0; Win64; x64) AppleWebKit/537.36 (KHTML, like Gecko) Chrome/119.0.0.0 Safari/537.36 Edg/119.0.0.0" etag="RXcpo34PhTDz3tG-Uc-s" version="22.1.5" type="device">
  <diagram name="Seite-1" id="goZmlAQvP2xmTOEM6YcT">
    <mxGraphModel dx="2722" dy="973" grid="1" gridSize="10" guides="1" tooltips="1" connect="1" arrows="1" fold="1" page="1" pageScale="1" pageWidth="827" pageHeight="1169" math="0" shadow="0">
      <root>
        <mxCell id="0" />
        <mxCell id="1" parent="0" />
        <mxCell id="rNvgKP-XyyoEuGhugTqY-169" value="" style="rounded=0;whiteSpace=wrap;html=1;" parent="1" vertex="1">
          <mxGeometry x="-350" y="680" width="120" height="220" as="geometry" />
        </mxCell>
        <mxCell id="rNvgKP-XyyoEuGhugTqY-40" value="" style="rounded=0;whiteSpace=wrap;html=1;" parent="1" vertex="1">
          <mxGeometry x="400" y="680" width="120" height="220" as="geometry" />
        </mxCell>
        <mxCell id="rNvgKP-XyyoEuGhugTqY-44" value="MapObject" style="rounded=1;whiteSpace=wrap;html=1;fillColor=#f5f5f5;fontColor=#333333;strokeColor=#666666;" parent="1" vertex="1">
          <mxGeometry x="410" y="790" width="100" height="40" as="geometry" />
        </mxCell>
        <mxCell id="rNvgKP-XyyoEuGhugTqY-51" style="edgeStyle=orthogonalEdgeStyle;rounded=0;orthogonalLoop=1;jettySize=auto;html=1;exitX=0.5;exitY=1;exitDx=0;exitDy=0;entryX=0.5;entryY=0;entryDx=0;entryDy=0;dashed=1;" parent="1" source="rNvgKP-XyyoEuGhugTqY-47" target="rNvgKP-XyyoEuGhugTqY-44" edge="1">
          <mxGeometry relative="1" as="geometry" />
        </mxCell>
        <mxCell id="rNvgKP-XyyoEuGhugTqY-47" value="GameChunk" style="rounded=1;whiteSpace=wrap;html=1;fillColor=#f5f5f5;fontColor=#333333;strokeColor=#666666;" parent="1" vertex="1">
          <mxGeometry x="410" y="730" width="100" height="40" as="geometry" />
        </mxCell>
        <mxCell id="rNvgKP-XyyoEuGhugTqY-49" value="&lt;b&gt;GameMap&lt;/b&gt;" style="text;html=1;align=center;verticalAlign=middle;resizable=0;points=[];autosize=1;strokeColor=none;fillColor=none;" parent="1" vertex="1">
          <mxGeometry x="420" y="680" width="80" height="30" as="geometry" />
        </mxCell>
        <mxCell id="rNvgKP-XyyoEuGhugTqY-53" value="GameObject" style="rounded=1;whiteSpace=wrap;html=1;fillColor=#f5f5f5;fontColor=#333333;strokeColor=#666666;" parent="1" vertex="1">
          <mxGeometry x="410" y="850" width="100" height="40" as="geometry" />
        </mxCell>
        <mxCell id="rNvgKP-XyyoEuGhugTqY-63" value="" style="rounded=0;whiteSpace=wrap;html=1;" parent="1" vertex="1">
          <mxGeometry x="560" y="680" width="230" height="220" as="geometry" />
        </mxCell>
        <mxCell id="rNvgKP-XyyoEuGhugTqY-64" value="&lt;b&gt;GameLoop&lt;/b&gt;" style="text;html=1;align=center;verticalAlign=middle;resizable=0;points=[];autosize=1;strokeColor=none;fillColor=none;" parent="1" vertex="1">
          <mxGeometry x="630" y="680" width="90" height="30" as="geometry" />
        </mxCell>
        <mxCell id="rNvgKP-XyyoEuGhugTqY-71" value="Renderer-Manager" style="rounded=1;whiteSpace=wrap;html=1;" parent="1" vertex="1">
          <mxGeometry x="800" y="750" width="100" height="40" as="geometry" />
        </mxCell>
        <mxCell id="rNvgKP-XyyoEuGhugTqY-72" value="EventManager" style="rounded=1;whiteSpace=wrap;html=1;" parent="1" vertex="1">
          <mxGeometry x="800" y="820" width="100" height="40" as="geometry" />
        </mxCell>
        <mxCell id="rNvgKP-XyyoEuGhugTqY-73" value="Loop" style="rounded=1;whiteSpace=wrap;html=1;fillColor=#f5f5f5;fontColor=#333333;strokeColor=#666666;" parent="1" vertex="1">
          <mxGeometry x="625" y="790" width="100" height="40" as="geometry" />
        </mxCell>
        <mxCell id="rNvgKP-XyyoEuGhugTqY-75" value="" style="endArrow=classic;html=1;rounded=0;exitX=1;exitY=0.25;exitDx=0;exitDy=0;entryX=0;entryY=0.5;entryDx=0;entryDy=0;dashed=1;" parent="1" source="rNvgKP-XyyoEuGhugTqY-73" target="rNvgKP-XyyoEuGhugTqY-71" edge="1">
          <mxGeometry width="50" height="50" relative="1" as="geometry">
            <mxPoint x="870" y="750" as="sourcePoint" />
            <mxPoint x="920" y="700" as="targetPoint" />
          </mxGeometry>
        </mxCell>
        <mxCell id="rNvgKP-XyyoEuGhugTqY-76" value="" style="endArrow=classic;html=1;rounded=0;exitX=1;exitY=0.75;exitDx=0;exitDy=0;entryX=0;entryY=0.5;entryDx=0;entryDy=0;dashed=1;" parent="1" source="rNvgKP-XyyoEuGhugTqY-73" target="rNvgKP-XyyoEuGhugTqY-72" edge="1">
          <mxGeometry width="50" height="50" relative="1" as="geometry">
            <mxPoint x="845" y="750" as="sourcePoint" />
            <mxPoint x="930" y="730" as="targetPoint" />
          </mxGeometry>
        </mxCell>
        <mxCell id="rNvgKP-XyyoEuGhugTqY-77" value="GameObjects" style="rounded=1;whiteSpace=wrap;html=1;fillColor=#f5f5f5;fontColor=#333333;strokeColor=#666666;" parent="1" vertex="1">
          <mxGeometry x="570" y="730" width="100" height="40" as="geometry" />
        </mxCell>
        <mxCell id="rNvgKP-XyyoEuGhugTqY-78" value="GameFiles" style="rounded=1;whiteSpace=wrap;html=1;fillColor=#f5f5f5;fontColor=#333333;strokeColor=#666666;" parent="1" vertex="1">
          <mxGeometry x="680" y="730" width="100" height="40" as="geometry" />
        </mxCell>
        <mxCell id="rNvgKP-XyyoEuGhugTqY-79" value="Scripts" style="rounded=1;whiteSpace=wrap;html=1;fillColor=#f5f5f5;fontColor=#333333;strokeColor=#666666;" parent="1" vertex="1">
          <mxGeometry x="570" y="850" width="100" height="40" as="geometry" />
        </mxCell>
        <mxCell id="rNvgKP-XyyoEuGhugTqY-80" value="EventListener" style="rounded=1;whiteSpace=wrap;html=1;fillColor=#f5f5f5;fontColor=#333333;strokeColor=#666666;" parent="1" vertex="1">
          <mxGeometry x="680" y="850" width="100" height="40" as="geometry" />
        </mxCell>
        <mxCell id="rNvgKP-XyyoEuGhugTqY-82" value="" style="endArrow=classic;html=1;rounded=0;exitX=0.75;exitY=0;exitDx=0;exitDy=0;entryX=0.5;entryY=1;entryDx=0;entryDy=0;dashed=1;" parent="1" source="rNvgKP-XyyoEuGhugTqY-73" target="rNvgKP-XyyoEuGhugTqY-78" edge="1">
          <mxGeometry width="50" height="50" relative="1" as="geometry">
            <mxPoint x="830" y="860" as="sourcePoint" />
            <mxPoint x="880" y="810" as="targetPoint" />
          </mxGeometry>
        </mxCell>
        <mxCell id="rNvgKP-XyyoEuGhugTqY-83" value="" style="endArrow=classic;html=1;rounded=0;exitX=0.25;exitY=0;exitDx=0;exitDy=0;entryX=0.5;entryY=1;entryDx=0;entryDy=0;dashed=1;" parent="1" source="rNvgKP-XyyoEuGhugTqY-73" target="rNvgKP-XyyoEuGhugTqY-77" edge="1">
          <mxGeometry width="50" height="50" relative="1" as="geometry">
            <mxPoint x="820" y="860" as="sourcePoint" />
            <mxPoint x="870" y="810" as="targetPoint" />
          </mxGeometry>
        </mxCell>
        <mxCell id="rNvgKP-XyyoEuGhugTqY-84" value="" style="endArrow=classic;html=1;rounded=0;exitX=0.75;exitY=1;exitDx=0;exitDy=0;entryX=0.5;entryY=0;entryDx=0;entryDy=0;dashed=1;" parent="1" source="rNvgKP-XyyoEuGhugTqY-73" target="rNvgKP-XyyoEuGhugTqY-80" edge="1">
          <mxGeometry width="50" height="50" relative="1" as="geometry">
            <mxPoint x="820" y="860" as="sourcePoint" />
            <mxPoint x="870" y="810" as="targetPoint" />
          </mxGeometry>
        </mxCell>
        <mxCell id="rNvgKP-XyyoEuGhugTqY-85" value="" style="endArrow=classic;html=1;rounded=0;exitX=0.25;exitY=1;exitDx=0;exitDy=0;entryX=0.5;entryY=0;entryDx=0;entryDy=0;dashed=1;" parent="1" source="rNvgKP-XyyoEuGhugTqY-73" target="rNvgKP-XyyoEuGhugTqY-79" edge="1">
          <mxGeometry width="50" height="50" relative="1" as="geometry">
            <mxPoint x="820" y="860" as="sourcePoint" />
            <mxPoint x="870" y="810" as="targetPoint" />
          </mxGeometry>
        </mxCell>
        <mxCell id="rNvgKP-XyyoEuGhugTqY-86" value="" style="endArrow=block;html=1;rounded=0;exitX=0.5;exitY=1;exitDx=0;exitDy=0;entryX=0.5;entryY=0;entryDx=0;entryDy=0;endFill=0;" parent="1" source="rNvgKP-XyyoEuGhugTqY-44" target="rNvgKP-XyyoEuGhugTqY-53" edge="1">
          <mxGeometry width="50" height="50" relative="1" as="geometry">
            <mxPoint x="570" y="890" as="sourcePoint" />
            <mxPoint x="620" y="840" as="targetPoint" />
          </mxGeometry>
        </mxCell>
        <mxCell id="rNvgKP-XyyoEuGhugTqY-88" value="" style="rounded=0;whiteSpace=wrap;html=1;" parent="1" vertex="1">
          <mxGeometry x="940" y="680" width="230" height="220" as="geometry" />
        </mxCell>
        <mxCell id="rNvgKP-XyyoEuGhugTqY-91" value="&lt;b&gt;EventManager&lt;/b&gt;" style="text;html=1;align=center;verticalAlign=middle;resizable=0;points=[];autosize=1;strokeColor=none;fillColor=none;" parent="1" vertex="1">
          <mxGeometry x="1000" y="680" width="110" height="30" as="geometry" />
        </mxCell>
        <mxCell id="rNvgKP-XyyoEuGhugTqY-92" value="Registered Events" style="rounded=1;whiteSpace=wrap;html=1;fillColor=#f5f5f5;fontColor=#333333;strokeColor=#666666;" parent="1" vertex="1">
          <mxGeometry x="1005" y="790" width="100" height="40" as="geometry" />
        </mxCell>
        <mxCell id="rNvgKP-XyyoEuGhugTqY-93" value="KeyEvent" style="rounded=1;whiteSpace=wrap;html=1;fillColor=#f5f5f5;fontColor=#333333;strokeColor=#666666;" parent="1" vertex="1">
          <mxGeometry x="950" y="850" width="100" height="40" as="geometry" />
        </mxCell>
        <mxCell id="rNvgKP-XyyoEuGhugTqY-94" value="MapEvent" style="rounded=1;whiteSpace=wrap;html=1;fillColor=#f5f5f5;fontColor=#333333;strokeColor=#666666;" parent="1" vertex="1">
          <mxGeometry x="1060" y="850" width="100" height="40" as="geometry" />
        </mxCell>
        <mxCell id="rNvgKP-XyyoEuGhugTqY-97" value="" style="endArrow=classic;html=1;rounded=0;exitX=0.25;exitY=1;exitDx=0;exitDy=0;entryX=0.5;entryY=0;entryDx=0;entryDy=0;dashed=1;" parent="1" source="rNvgKP-XyyoEuGhugTqY-92" target="rNvgKP-XyyoEuGhugTqY-93" edge="1">
          <mxGeometry width="50" height="50" relative="1" as="geometry">
            <mxPoint x="1060" y="840" as="sourcePoint" />
            <mxPoint x="1110" y="790" as="targetPoint" />
          </mxGeometry>
        </mxCell>
        <mxCell id="rNvgKP-XyyoEuGhugTqY-98" value="" style="endArrow=classic;html=1;rounded=0;exitX=0.75;exitY=1;exitDx=0;exitDy=0;entryX=0.5;entryY=0;entryDx=0;entryDy=0;dashed=1;" parent="1" source="rNvgKP-XyyoEuGhugTqY-92" target="rNvgKP-XyyoEuGhugTqY-94" edge="1">
          <mxGeometry width="50" height="50" relative="1" as="geometry">
            <mxPoint x="1060" y="840" as="sourcePoint" />
            <mxPoint x="1110" y="790" as="targetPoint" />
          </mxGeometry>
        </mxCell>
        <mxCell id="rNvgKP-XyyoEuGhugTqY-103" style="edgeStyle=orthogonalEdgeStyle;rounded=0;orthogonalLoop=1;jettySize=auto;html=1;exitX=0.5;exitY=1;exitDx=0;exitDy=0;entryX=0.5;entryY=0;entryDx=0;entryDy=0;dashed=1;" parent="1" source="rNvgKP-XyyoEuGhugTqY-102" target="rNvgKP-XyyoEuGhugTqY-92" edge="1">
          <mxGeometry relative="1" as="geometry" />
        </mxCell>
        <mxCell id="rNvgKP-XyyoEuGhugTqY-102" value="EventManager" style="rounded=1;whiteSpace=wrap;html=1;fillColor=#f5f5f5;fontColor=#333333;strokeColor=#666666;" parent="1" vertex="1">
          <mxGeometry x="1005" y="730" width="100" height="40" as="geometry" />
        </mxCell>
        <mxCell id="rNvgKP-XyyoEuGhugTqY-115" value="" style="rounded=0;whiteSpace=wrap;html=1;" parent="1" vertex="1">
          <mxGeometry x="240" y="680" width="120" height="220" as="geometry" />
        </mxCell>
        <mxCell id="rNvgKP-XyyoEuGhugTqY-118" value="" style="rounded=0;whiteSpace=wrap;html=1;" parent="1" vertex="1">
          <mxGeometry x="80" y="680" width="120" height="220" as="geometry" />
        </mxCell>
        <mxCell id="rNvgKP-XyyoEuGhugTqY-121" value="&lt;b&gt;Skriptcompiler&lt;/b&gt;" style="text;html=1;align=center;verticalAlign=middle;resizable=0;points=[];autosize=1;strokeColor=none;fillColor=none;" parent="1" vertex="1">
          <mxGeometry x="85" y="680" width="110" height="30" as="geometry" />
        </mxCell>
        <mxCell id="rNvgKP-XyyoEuGhugTqY-122" value="&lt;b&gt;FileConverter&lt;/b&gt;" style="text;html=1;align=center;verticalAlign=middle;resizable=0;points=[];autosize=1;strokeColor=none;fillColor=none;" parent="1" vertex="1">
          <mxGeometry x="250" y="680" width="100" height="30" as="geometry" />
        </mxCell>
        <mxCell id="rNvgKP-XyyoEuGhugTqY-123" value="MapConverter" style="rounded=1;whiteSpace=wrap;html=1;fillColor=#f5f5f5;fontColor=#333333;strokeColor=#666666;" parent="1" vertex="1">
          <mxGeometry x="250" y="730" width="100" height="40" as="geometry" />
        </mxCell>
        <mxCell id="rNvgKP-XyyoEuGhugTqY-128" value="AssetConverter" style="rounded=1;whiteSpace=wrap;html=1;fillColor=#f5f5f5;fontColor=#333333;strokeColor=#666666;" parent="1" vertex="1">
          <mxGeometry x="250" y="850" width="100" height="40" as="geometry" />
        </mxCell>
        <mxCell id="rNvgKP-XyyoEuGhugTqY-130" value="Java-Datei" style="rounded=1;whiteSpace=wrap;html=1;fillColor=#f5f5f5;fontColor=#333333;strokeColor=#666666;" parent="1" vertex="1">
          <mxGeometry x="90" y="730" width="100" height="40" as="geometry" />
        </mxCell>
        <mxCell id="rNvgKP-XyyoEuGhugTqY-134" style="edgeStyle=orthogonalEdgeStyle;rounded=0;orthogonalLoop=1;jettySize=auto;html=1;exitX=0.5;exitY=0;exitDx=0;exitDy=0;entryX=0.5;entryY=1;entryDx=0;entryDy=0;dashed=1;" parent="1" source="rNvgKP-XyyoEuGhugTqY-131" target="rNvgKP-XyyoEuGhugTqY-130" edge="1">
          <mxGeometry relative="1" as="geometry" />
        </mxCell>
        <mxCell id="rNvgKP-XyyoEuGhugTqY-135" style="edgeStyle=orthogonalEdgeStyle;rounded=0;orthogonalLoop=1;jettySize=auto;html=1;exitX=0.5;exitY=1;exitDx=0;exitDy=0;entryX=0.5;entryY=0;entryDx=0;entryDy=0;dashed=1;" parent="1" source="rNvgKP-XyyoEuGhugTqY-131" target="rNvgKP-XyyoEuGhugTqY-133" edge="1">
          <mxGeometry relative="1" as="geometry" />
        </mxCell>
        <mxCell id="rNvgKP-XyyoEuGhugTqY-131" value="Java-Compiler" style="rounded=1;whiteSpace=wrap;html=1;fillColor=#f5f5f5;fontColor=#333333;strokeColor=#666666;" parent="1" vertex="1">
          <mxGeometry x="90" y="790" width="100" height="40" as="geometry" />
        </mxCell>
        <mxCell id="rNvgKP-XyyoEuGhugTqY-133" value="Class-Datei" style="rounded=1;whiteSpace=wrap;html=1;fillColor=#f5f5f5;fontColor=#333333;strokeColor=#666666;" parent="1" vertex="1">
          <mxGeometry x="90" y="850" width="100" height="40" as="geometry" />
        </mxCell>
        <mxCell id="rNvgKP-XyyoEuGhugTqY-137" style="edgeStyle=orthogonalEdgeStyle;rounded=0;orthogonalLoop=1;jettySize=auto;html=1;exitX=0.5;exitY=0;exitDx=0;exitDy=0;entryX=0.5;entryY=1;entryDx=0;entryDy=0;dashed=1;" parent="1" source="rNvgKP-XyyoEuGhugTqY-136" target="rNvgKP-XyyoEuGhugTqY-123" edge="1">
          <mxGeometry relative="1" as="geometry" />
        </mxCell>
        <mxCell id="rNvgKP-XyyoEuGhugTqY-138" style="edgeStyle=orthogonalEdgeStyle;rounded=0;orthogonalLoop=1;jettySize=auto;html=1;exitX=0.5;exitY=1;exitDx=0;exitDy=0;entryX=0.5;entryY=0;entryDx=0;entryDy=0;dashed=1;" parent="1" source="rNvgKP-XyyoEuGhugTqY-136" target="rNvgKP-XyyoEuGhugTqY-128" edge="1">
          <mxGeometry relative="1" as="geometry" />
        </mxCell>
        <mxCell id="rNvgKP-XyyoEuGhugTqY-136" value="FileConverter" style="rounded=1;whiteSpace=wrap;html=1;fillColor=#f5f5f5;fontColor=#333333;strokeColor=#666666;" parent="1" vertex="1">
          <mxGeometry x="250" y="790" width="100" height="40" as="geometry" />
        </mxCell>
        <mxCell id="rNvgKP-XyyoEuGhugTqY-146" value="" style="rounded=0;whiteSpace=wrap;html=1;" parent="1" vertex="1">
          <mxGeometry x="-190" y="680" width="230" height="220" as="geometry" />
        </mxCell>
        <mxCell id="rNvgKP-XyyoEuGhugTqY-149" value="&lt;b&gt;Welteneditor&lt;/b&gt;" style="text;html=1;align=center;verticalAlign=middle;resizable=0;points=[];autosize=1;strokeColor=none;fillColor=none;" parent="1" vertex="1">
          <mxGeometry x="-125" y="680" width="100" height="30" as="geometry" />
        </mxCell>
        <mxCell id="rNvgKP-XyyoEuGhugTqY-172" style="edgeStyle=orthogonalEdgeStyle;rounded=0;orthogonalLoop=1;jettySize=auto;html=1;exitX=0;exitY=0.5;exitDx=0;exitDy=0;entryX=1;entryY=0.5;entryDx=0;entryDy=0;dashed=1;" parent="1" source="rNvgKP-XyyoEuGhugTqY-150" target="rNvgKP-XyyoEuGhugTqY-171" edge="1">
          <mxGeometry relative="1" as="geometry" />
        </mxCell>
        <mxCell id="rNvgKP-XyyoEuGhugTqY-150" value="Editor" style="rounded=1;whiteSpace=wrap;html=1;fillColor=#f5f5f5;fontColor=#333333;strokeColor=#666666;" parent="1" vertex="1">
          <mxGeometry x="-125" y="730" width="100" height="40" as="geometry" />
        </mxCell>
        <mxCell id="rNvgKP-XyyoEuGhugTqY-151" value="Assets" style="rounded=1;whiteSpace=wrap;html=1;fillColor=#f5f5f5;fontColor=#333333;strokeColor=#666666;" parent="1" vertex="1">
          <mxGeometry x="-70" y="850" width="100" height="40" as="geometry" />
        </mxCell>
        <mxCell id="rNvgKP-XyyoEuGhugTqY-152" value="MapObjects" style="rounded=1;whiteSpace=wrap;html=1;fillColor=#f5f5f5;fontColor=#333333;strokeColor=#666666;" parent="1" vertex="1">
          <mxGeometry x="-180" y="850" width="100" height="40" as="geometry" />
        </mxCell>
        <mxCell id="rNvgKP-XyyoEuGhugTqY-156" style="edgeStyle=orthogonalEdgeStyle;rounded=0;orthogonalLoop=1;jettySize=auto;html=1;exitX=0.5;exitY=1;exitDx=0;exitDy=0;entryX=0.5;entryY=0;entryDx=0;entryDy=0;dashed=1;" parent="1" source="rNvgKP-XyyoEuGhugTqY-153" target="rNvgKP-XyyoEuGhugTqY-151" edge="1">
          <mxGeometry relative="1" as="geometry" />
        </mxCell>
        <mxCell id="rNvgKP-XyyoEuGhugTqY-153" value="Asset-Tree" style="rounded=1;whiteSpace=wrap;html=1;fillColor=#f5f5f5;fontColor=#333333;strokeColor=#666666;" parent="1" vertex="1">
          <mxGeometry x="-70" y="790" width="100" height="40" as="geometry" />
        </mxCell>
        <mxCell id="rNvgKP-XyyoEuGhugTqY-155" style="edgeStyle=orthogonalEdgeStyle;rounded=0;orthogonalLoop=1;jettySize=auto;html=1;exitX=0.5;exitY=1;exitDx=0;exitDy=0;entryX=0.5;entryY=0;entryDx=0;entryDy=0;dashed=1;" parent="1" source="rNvgKP-XyyoEuGhugTqY-154" target="rNvgKP-XyyoEuGhugTqY-152" edge="1">
          <mxGeometry relative="1" as="geometry" />
        </mxCell>
        <mxCell id="rNvgKP-XyyoEuGhugTqY-154" value="Map-Explorer" style="rounded=1;whiteSpace=wrap;html=1;fillColor=#f5f5f5;fontColor=#333333;strokeColor=#666666;" parent="1" vertex="1">
          <mxGeometry x="-180" y="790" width="100" height="40" as="geometry" />
        </mxCell>
        <mxCell id="rNvgKP-XyyoEuGhugTqY-157" value="" style="endArrow=classic;html=1;rounded=0;exitX=0.75;exitY=1;exitDx=0;exitDy=0;entryX=0.5;entryY=0;entryDx=0;entryDy=0;dashed=1;" parent="1" source="rNvgKP-XyyoEuGhugTqY-150" target="rNvgKP-XyyoEuGhugTqY-153" edge="1">
          <mxGeometry width="50" height="50" relative="1" as="geometry">
            <mxPoint x="-20" y="850" as="sourcePoint" />
            <mxPoint x="30" y="800" as="targetPoint" />
          </mxGeometry>
        </mxCell>
        <mxCell id="rNvgKP-XyyoEuGhugTqY-158" value="" style="endArrow=classic;html=1;rounded=0;exitX=0.25;exitY=1;exitDx=0;exitDy=0;entryX=0.5;entryY=0;entryDx=0;entryDy=0;dashed=1;" parent="1" source="rNvgKP-XyyoEuGhugTqY-150" target="rNvgKP-XyyoEuGhugTqY-154" edge="1">
          <mxGeometry width="50" height="50" relative="1" as="geometry">
            <mxPoint x="-20" y="850" as="sourcePoint" />
            <mxPoint x="30" y="800" as="targetPoint" />
          </mxGeometry>
        </mxCell>
        <mxCell id="rNvgKP-XyyoEuGhugTqY-170" value="&lt;b&gt;Objectinspector&lt;/b&gt;" style="text;html=1;align=center;verticalAlign=middle;resizable=0;points=[];autosize=1;strokeColor=none;fillColor=none;" parent="1" vertex="1">
          <mxGeometry x="-345" y="680" width="110" height="30" as="geometry" />
        </mxCell>
        <mxCell id="rNvgKP-XyyoEuGhugTqY-182" style="edgeStyle=orthogonalEdgeStyle;rounded=0;orthogonalLoop=1;jettySize=auto;html=1;exitX=0.5;exitY=1;exitDx=0;exitDy=0;entryX=0.5;entryY=0;entryDx=0;entryDy=0;dashed=1;" parent="1" source="rNvgKP-XyyoEuGhugTqY-171" target="rNvgKP-XyyoEuGhugTqY-180" edge="1">
          <mxGeometry relative="1" as="geometry" />
        </mxCell>
        <mxCell id="rNvgKP-XyyoEuGhugTqY-171" value="Inspector" style="rounded=1;whiteSpace=wrap;html=1;fillColor=#f5f5f5;fontColor=#333333;strokeColor=#666666;" parent="1" vertex="1">
          <mxGeometry x="-340" y="730" width="100" height="40" as="geometry" />
        </mxCell>
        <mxCell id="rNvgKP-XyyoEuGhugTqY-183" style="edgeStyle=orthogonalEdgeStyle;rounded=0;orthogonalLoop=1;jettySize=auto;html=1;exitX=0.5;exitY=1;exitDx=0;exitDy=0;entryX=0.5;entryY=0;entryDx=0;entryDy=0;dashed=1;" parent="1" source="rNvgKP-XyyoEuGhugTqY-180" target="rNvgKP-XyyoEuGhugTqY-181" edge="1">
          <mxGeometry relative="1" as="geometry" />
        </mxCell>
        <mxCell id="rNvgKP-XyyoEuGhugTqY-180" value="MapObject" style="rounded=1;whiteSpace=wrap;html=1;fillColor=#f5f5f5;fontColor=#333333;strokeColor=#666666;" parent="1" vertex="1">
          <mxGeometry x="-340" y="790" width="100" height="40" as="geometry" />
        </mxCell>
        <mxCell id="rNvgKP-XyyoEuGhugTqY-181" value="Attributes" style="rounded=1;whiteSpace=wrap;html=1;fillColor=#f5f5f5;fontColor=#333333;strokeColor=#666666;" parent="1" vertex="1">
          <mxGeometry x="-340" y="850" width="100" height="40" as="geometry" />
        </mxCell>
      </root>
    </mxGraphModel>
  </diagram>
</mxfile>
